<svg id="1n5eo1eXk" viewBox="0 0 349.99999999999994 209.15594010358788" height="209.15594010358788" width="349.99999999999994" style="width: 350px; height: 209.156px; position: absolute; top: 50%; left: 50%; transform: translate(-50%, -50%) scale(0.598286); z-index: 0; cursor: pointer; overflow: visible;">
  <defs id="SvgjsDefs1001"></defs>
  <!-- Background group only -->
  <g id="SvgjsG1007" featurekey="e7LhAk-0" transform="matrix(1.4733035746042753,0,0,1.4733035746042753,188.29117161005365,-96.05938856803306)" fill="#111111">
    <g xmlns="http://www.w3.org/2000/svg">
      <path d="M-44.2,87.9c-1.1-1.3-2.8-2.5-4.6-3.1c-2.3-0.8-4.4-0.6-5.8,0.5c-1.4,1.1-2.1,3.1-1.9,5.5   c0.2,1.9,1,3.9,2,5.2c1.1,1.3,2.8,2.5,4.7,3.2c0.9,0.3,1.9,0.5,2.7,0.5c1.2,0,2.3-0.3,3.2-1C-40.7,96.2-42,90.6-44.2,87.9z    M-46.2,95.6c-0.3,0.2-1.1,0.3-2.3-0.1c-1.2-0.4-2.4-1.2-2.9-1.9c-0.6-0.8-1.1-2-1.2-3.2c-0.1-1.1,0.1-1.9,0.4-2.1   c0.2-0.1,0.4-0.2,0.8-0.2c0.4,0,0.9,0.1,1.4,0.3c1.1,0.4,2.2,1.1,2.9,1.9C-45.8,91.9-45.4,95-46.2,95.6z"/>
      <path d="M-42.1,86.5c1.1,0.4,2.2,0.7,3.2,0.7c1.1,0,2.2-0.3,3.1-0.9c3.6-2.3,3-8.2,1-11.3c-1-1.5-2.7-2.9-4.6-3.6   c-2.3-1-4.5-0.9-6.2,0.2c-1.7,1.1-2.6,3-2.7,5.6c-0.1,1.5,0.2,3.1,0.7,4.4c0.4,0.9,0.9,1.7,1.6,2.4C-44.9,85-43.5,85.9-42.1,86.5z    M-43.4,74.8c0.2-0.2,0.6-0.2,0.9-0.2c0.5,0,1.1,0.1,1.7,0.4c1.2,0.5,2.3,1.3,2.8,2.2c1.1,1.7,1.4,5.2,0.1,6   c-0.6,0.4-1.6,0.3-2.8-0.2c-1.2-0.5-2.4-1.4-2.9-2.2c-0.5-0.8-0.9-2.2-0.8-3.5C-44.4,76-44,75.1-43.4,74.8z"/>
      <path d="M-13.8,92.5c0.4,0.1,0.8,0.1,1.2,0.1c3.7,0,6.9-3.9,7.7-7.1c0.8-3.4-0.7-9.2-4.8-10.2   c-4.2-1-8.2,3.4-9.1,6.8C-19.6,85.6-17.9,91.5-13.8,92.5z M-15,83c0.4-1.8,2.6-4,4.1-4c0.1,0,0.2,0,0.3,0c1.5,0.4,2.5,3.6,2,5.6   s-2.8,4.5-4.3,4.2C-14.3,88.4-15.5,85.1-15,83z"/>
      <path d="M-24.9,84.6L-24.9,84.6c4.3,0,7.5-5.4,7.5-10c0-2.5-1.3-5.5-3.3-7.4c-1.4-1.3-2.9-2-4.4-2   c-1.7,0-3.5,0.9-4.9,2.4c-1.9,2-3,4.7-2.9,7.3C-32.7,79.3-29,84.6-24.9,84.6z M-27.2,70.2c0.8-0.8,1.6-1.2,2.3-1.2l0,0   c0.5,0,1.1,0.3,1.6,0.9c1.2,1.2,2.1,3.2,2.1,4.7c0,3-2.2,6.1-3.7,6.2l0,0c-1.5,0-4-3.2-4.1-6C-29,73.1-28.3,71.4-27.2,70.2z"/>
      <path d="M-8.7,103.5c0.3-4.3-3.4-7.8-6-9.2c-1.9-1-4.2-2.4-6.3-4.9c-2.7-3.2-7, -4.5-9-4.1c-2.7,0.5-6.1,2.8-7.9,7.1   c-1.1,2.7-3.7,7.1-5,9.2c-0.4,0.7-0.8,1.5-1,2.3c-0.2,0.6-0.3,1.4-0.4,3.2c-0.1,4,1.3,7.1,3.9,8.7c1.4,0.8,3.2,1.2,4.9,1.2   c1.6,0,3-0.3,4-0.9l0.2-0.1c5.7-3.3,7.2-3.6,7.5-3.6c0.5,0,1.3,0.1,2.2,0.1c4.5,0.3,6.6,0.3,7.8-0.3   C-9.7,110.1-8.9,106.4-8.7,103.5z M-13,105.8c-0.6,1.8-2.3,3-4.2,2.9c-1.3,0-3-0.1-4-0.2c-1-0.1-1.9-0.1-2.5-0.1   c-1.7,0-4.5,1.2-9.5,4.1l-0.2,0.1c-0.7,0.4-3.4,0.6-4.9-0.3c-1.9-1.2-2.1-3.8-2.1-5.3l0,0c0.1-1.6,0.6-3.1,1.4-4.4   c1.4-2.3,3.6-6.2,4.7-8.8c1.4-3.3,4-4.4,5.1-4.6c0.6-0.1,3.5,0.4,5.3,2.6c2.6,3,5.2,4.7,7.5,5.9c1.7,0.9,4.1,3.3,3.9,5.5   C-12.7,104.2-12.8,105.1-13,105.8z"/>
      <path d="M-4.4,132c1.8-0.4,3.2-2,3.9-4.4c0.5-1.8,0.6-3.9,0.2-5.6c-0.8-3.3-4.6-7.6-8.4-6.7   c-3.8,0.9-5.1,6.5-4.3,9.8c0.4,1.7,1.5,3.5,3,4.8c1.5,1.4,2.9,2.2,4.4,2.2C-4.8,132.1-4.8,132.1-4.4,132z M-9.2,124.3   c-0.5-2.1,0.5-4.9,1.5-5.2c0.1,0,0.1,0,0.2,0c1.1,0,3.1,2,3.6,3.9c0.2,1,0.2,2.4-0.2,3.5c-0.3,1.1-0.8,1.7-1.2,1.7   c-0.4,0.1-1.2-0.2-2-1C-8.3,126.4-9,125.2-9.2,124.3z"/>
      <path d="M7.3,124.2c0.2,0,0,0,0.7,0c4.4-0.5,6.1-6.3,5.6-9.9c-0.3-1.8-1.3-3.7-2.7-5.2c-1.7-1.8-3.7-2.7-5.7-2.4   C1,107.3-1,113-0.5,116.4C0,119.7,3.3,123.9,7.3,124.2z M5.9,110.5c0.1,0,0.1,0,0.2,0c0.6,0,1.4,0.5,2.2,1.2   c0.9,0.9,1.5,2.2,1.7,3.2c0.3,2-0.9,5.3-2.4,5.5s-3.9-2.4-4.2-4.5C3,113.9,4.3,110.7,5.9,110.5z"/>
      <path d="M36.3,125.1c-3.4-2.7-8.9-0.3-11.1,2.4c-1.1,1.4-1.9,3.5-2,5.7c-0.1,2.6,0.6,4.7,2.2,5.9   c0.9,0.8,2.1,1.1,3.4,1.1c0.9,0,1.8-0.2,2.7-0.5c1.9-0.6,3.7-1.9,4.8-3.3C38.7,133.6,39.7,127.7,36.3,125.1z M33.5,134   c-0.6,0.8-1.9,1.6-3.1,2c-1.1,0.4-2.1,0.4-2.6,0s-0.8-1.4-0.7-2.7c0.1-1.3,0.5-2.7,1.1-3.5c0.9-1.1,3-2.1,4.5-2.1   c0.5,0,0.9,0.1,1.2,0.3C35.2,129,34.7,132.4,33.5,134z"/>
      <path d="M18.7,127.2c0.7,0.3,1.4,0.4,2.2,0.4c3.4,0,7.2-3,8.8-6.4c1.1-2.3,1.1-5.6,0.1-8.1c-0.7-1.8-1.8-3-3.2-3.7   c-1.6-0.7-3.5-0.7-5.5,0.1c-2.5,1-4.6,3-5.7,5.5C13.8,119.1,14.9,125.5,18.7,127.2z M19,116.5c0.6-1.5,2-2.8,3.5-3.4   c0.6-0.2,1.1-0.3,1.6-0.3c0.3,0,0.6,0.1,0.9,0.2c0.4,0.2,0.8,0.7,1.1,1.5c0.6,1.6,0.6,3.8,0,5.2c-1.3,2.8-4.5,4.7-5.9,4.1   C18.8,123,17.9,119.1,19,116.5z"/>
      <path d="M20.2,133.1c-1.1-4-4.5-7-6.5-7.5c-2.6-0.7-6.8,0-10.1,3.1c-2,1.9-5.9,4.5-8,6c-1.4,0.9-2.5,2.2-3.3,3.6   c-0.2,0.3-0.4,0.7-0.6,1.1c-1.8,3.6-1.8,7,0,9.6s5.6,4.2,7.9,4h0.3c6.5-0.7,8, -0.3,8.3-0.1c0.4,0.2,1.2,0.6,2,1c3.9,2.1,5.8,3,7.1,3   h0.1c4.6-0.2,6.8-3.2,8.2-5.8c2-3.8,0.1-8.5-1.6-10.8C22.5,138.5,21,136.3,20.2,133.1z M22.1,149.2c-1.2,2.2-2.4,3.3-4,3.7   c-0.6,0.1-1.3,0-1.9-0.2c-1.3-0.5-3.3-1.6-4.3-2.2c-0.9-0.5-1.7-0.9-2.2-1.1c-0.9-0.4-2.2-0.6-4.1-0.6c-1.6,0-3.6,0.1-6.2,0.4h-0.3   c-0.8,0.1-3.3-0.8-4.4-2.3c-1.3-1.9-0.4-4.4,0.3-5.7c0.1-0.1,0.1-0.3,0.2-0.4c0.7-1.2,1.6-2.2,2.7-3c2.2-1.5,6-4.2,8.2-6.2   c1.8-1.6,3.6-2.2,5-2.3c1-0.1,2,0.3,2.7,1c0.9,0.8,2.1,2.2,2.6,3.9c1.1,3.8,2.8,6.4,4.4,8.4C22,144.2,23.1,147.3,22.1,149.2z"/>
    </g>
  </g>
</svg>
